<svg xmlns="http://www.w3.org/2000/svg" width="1200" height="470" viewBox="0 0 1200 470"><defs><marker id="a" markerWidth="7" markerHeight="7" refX="6" refY="3.5" orient="auto"><path d="M0 0 L7 3.5 L0 7" fill="#29b8aa"/></marker></defs><rect width="1200" height="470" rx="18" fill="#0b2133"/><g font-family="Arial,sans-serif"><text x="32" y="46" font-size="28" font-weight="bold" fill="white">Strategy Patch Lab</text><text x="32" y="76" font-size="16" fill="#b0c9da">Build ? analyze ? patch ? execute ? restore</text><rect x="32.0" y="110" width="358.6666666666667" height="108" rx="10" fill="#163b54" stroke="#37728a"/><text x="48.0" y="145" font-size="19" font-weight="bold" fill="white">Owned C++ strategy</text><text x="48.0" y="173" font-size="14" fill="#c0d4e2">Maps and feature state machines</text><text x="48.0" y="195" font-size="14" fill="#c0d4e2">Protection arbitration</text><path d="M393.6666666666667 164 h23" stroke="#29b8aa" stroke-width="2.5" marker-end="url(#a)"/><rect x="420.6666666666667" y="110" width="358.6666666666667" height="108" rx="10" fill="#163b54" stroke="#37728a"/><text x="436.6666666666667" y="145" font-size="19" font-weight="bold" fill="white">Windows host image</text><text x="436.6666666666667" y="173" font-size="14" fill="#c0d4e2">AMD64 PE32+</text><text x="436.6666666666667" y="195" font-size="14" fill="#c0d4e2">.text / .patch / .cal sections</text><path d="M782.3333333333334 164 h23" stroke="#29b8aa" stroke-width="2.5" marker-end="url(#a)"/><rect x="809.3333333333334" y="110" width="358.6666666666667" height="108" rx="10" fill="#163b54" stroke="#37728a"/><text x="825.3333333333334" y="145" font-size="19" font-weight="bold" fill="white">Binary analysis</text><text x="825.3333333333334" y="173" font-size="14" fill="#c0d4e2">Offsets, RVA, VA and tables</text><text x="825.3333333333334" y="195" font-size="14" fill="#c0d4e2">GNU objdump and nm evidence</text><rect x="32.0" y="265" width="358.6666666666667" height="108" rx="10" fill="#163b54" stroke="#37728a"/><text x="48.0" y="300" font-size="19" font-weight="bold" fill="white">Constrained patch</text><text x="48.0" y="328" font-size="14" fill="#c0d4e2">Exact hash and instruction match</text><text x="48.0" y="350" font-size="14" fill="#c0d4e2">Feature immediate + PE checksum</text><path d="M393.6666666666667 319 h23" stroke="#29b8aa" stroke-width="2.5" marker-end="url(#a)"/><rect x="420.6666666666667" y="265" width="358.6666666666667" height="108" rx="10" fill="#163b54" stroke="#37728a"/><text x="436.6666666666667" y="300" font-size="19" font-weight="bold" fill="white">Executable replay</text><text x="436.6666666666667" y="328" font-size="14" fill="#c0d4e2">Baseline / patched / restored</text><text x="436.6666666666667" y="350" font-size="14" fill="#c0d4e2">Fault and feature scenarios</text><path d="M782.3333333333334 319 h23" stroke="#29b8aa" stroke-width="2.5" marker-end="url(#a)"/><rect x="809.3333333333334" y="265" width="358.6666666666667" height="108" rx="10" fill="#163b54" stroke="#37728a"/><text x="825.3333333333334" y="300" font-size="19" font-weight="bold" fill="white">Verification record</text><text x="825.3333333333334" y="328" font-size="14" fill="#c0d4e2">Protected-byte invariance</text><text x="825.3333333333334" y="350" font-size="14" fill="#c0d4e2">Exact binary and behavior rollback</text><text x="32" y="450" font-size="14" fill="#b0c9da">Implemented software model ? no physical ECU or OEM firmware represented</text></g></svg>